<svg width="37" height="37" viewBox="0 0 37 37" fill="none" xmlns="http://www.w3.org/2000/svg">
<path d="M12 19.7258C12.485 21.8713 12.9992 24.2075 14.0964 26.1221C15.0922 27.8599 15.657 26.7248 16.6875 25.2468C19.1595 21.7015 21.5482 18.1066 24.2396 14.73C25.0874 13.6664 26.6649 12.3863 27 11" stroke="#70B033" stroke-width="2" stroke-linecap="round"/>
<path opacity="0.3" d="M36.5 19.15C36.5 24.2972 33.8873 28.6244 29.9808 31.6798C26.0694 34.739 20.8853 36.5 15.8272 36.5C10.8477 36.5 7.03546 34.0756 4.44977 30.3323C1.85463 26.5754 0.5 21.4896 0.5 16.2357C0.5 13.6653 1.18945 11.6082 2.3616 9.9588C3.53721 8.30452 5.21864 7.03224 7.24249 6.07085C11.3024 4.14228 16.6656 3.5 21.8064 3.5C26.8883 3.5 30.531 4.84758 32.9117 7.41624C35.2992 9.99224 36.5 13.8845 36.5 19.15Z" stroke="#4E8D37"/>
<path opacity="0.3" d="M0.5 20.6765C0.5 8.94534 8.14958 0.5 18.0578 0.5C23.0882 0.5 27.1819 1.90794 30.0179 4.71766C32.8527 7.5261 34.5 11.8035 34.5 17.6838C34.5 23.5398 32.5183 28.2375 29.3174 31.4695C26.1151 34.7028 21.6625 36.5 16.6633 36.5C11.6013 36.5 7.57984 35.4164 4.82453 32.9454C2.07994 30.4841 0.5 26.5623 0.5 20.6765Z" stroke="#4E8D37"/>
</svg>
