<svg width="1920" height="294" viewBox="0 0 1920 294" fill="none" xmlns="http://www.w3.org/2000/svg">
<mask id="mask0_406_3437" style="mask-type:alpha" maskUnits="userSpaceOnUse" x="0" y="0" width="1920" height="294">
<rect width="1920" height="294" fill="#4E8D37"/>
</mask>
<g mask="url(#mask0_406_3437)">
<rect width="1920" height="294" fill="#414955"/>
<path d="M1366.75 242.521C1364.6 243.926 1363.45 246.442 1363.79 248.987C1364.14 251.533 1365.92 253.653 1368.37 254.435C1478.23 287.038 1617.42 297.502 1733.28 259.411C1689.08 309.093 1657.57 368.719 1641.44 433.203C1641.07 436.422 1642.32 439.616 1644.78 441.733C1647.24 443.851 1650.59 444.618 1653.72 443.783C1723.3 414.259 1791.13 364.776 1831.93 299.591C1841.21 329.721 1856.15 357.813 1875.96 382.363C1877.61 384.222 1880.12 385.059 1882.56 384.556C1884.99 384.053 1886.97 382.287 1887.74 379.928C1908.01 333.089 1916.31 274.723 1895.05 226.571L1967.13 288.687C1972.6 293.399 1980.86 292.795 1985.57 287.338C1990.29 281.881 1989.68 273.637 1984.21 268.925L1912.13 206.809C1962.85 220.688 2019.57 204.045 2063.01 177.172C2065.24 176.067 2066.7 173.856 2066.84 171.378C2066.98 168.901 2065.78 166.536 2063.7 165.181C2036.51 149.179 2006.53 138.492 1975.34 133.691C2033.98 84.0478 2072.99 9.73625 2092.16 -63.4018C2092.53 -66.6209 2091.28 -69.8148 2088.82 -71.9326C2086.36 -74.0503 2083.02 -74.8177 2079.88 -73.9819C2018.39 -48.6469 1963.95 -8.84549 1921.2 42.0321C1941.62 -76.9238 1911.51 -213.383 1863.35 -318.16C1862.22 -320.466 1859.86 -321.916 1857.29 -321.886C1854.72 -321.857 1852.39 -320.352 1851.31 -318.02C1805.21 -207.924 1780.39 -66.8941 1808.3 53.7114L1807.87 54.2054C1717.95 -77.6014 1557.92 -173.089 1408.83 -218.466C1406.39 -219.234 1403.72 -218.48 1402.05 -216.546C1400.38 -214.613 1400.02 -211.872 1401.14 -209.573C1468.8 -67.9928 1586.57 75.5699 1729.63 144.714L1729.21 145.208C1606.32 135.866 1469.98 180.268 1366.75 242.521Z" fill="#47505D"/>
<path d="M439.987 -33.7891C442.279 -34.3821 444.706 -33.6032 446.223 -31.7877C447.74 -29.9721 448.077 -27.4436 447.089 -25.29C401.085 69.7128 321.808 170.935 223.97 226.139C285.221 226.893 345.357 242.461 399.25 271.514C401.67 273.26 403.068 276.093 402.984 279.08C402.9 282.067 401.344 284.821 398.829 286.436C335.548 315.462 259.772 330.908 190.083 318.213C204.83 343.229 214.672 370.836 219.083 399.556C219.326 401.831 218.333 404.064 216.48 405.408C214.627 406.753 212.198 407.002 210.114 406.062C165.653 390.787 120.78 360.206 101.209 315.846L98.7402 403.457C98.5529 410.104 93.0168 415.348 86.3748 415.171C79.7328 414.995 74.5003 409.463 74.6875 402.817L77.1561 315.206C55.1196 358.337 8.58885 386.604 -36.6661 399.49C-38.7996 400.318 -41.2109 399.94 -42.9855 398.499C-44.7602 397.058 -45.6263 394.776 -45.2555 392.517C-39.2708 364.082 -27.9298 337.04 -11.8387 312.836C-82.0203 321.927 -156.81 302.351 -218.482 269.998C-220.903 268.252 -222.301 265.419 -222.217 262.432C-222.132 259.445 -220.577 256.691 -218.062 255.075C-162.651 228.952 -101.771 216.608 -40.6097 219.094C-134.241 159.153 -208.424 53.9642 -249.837 -43.8481C-250.703 -46.0511 -250.224 -48.5579 -248.607 -50.29C-246.99 -52.0221 -244.523 -52.6706 -242.267 -51.9565C-138.721 -14.9956 -27.3391 55.6549 37.4144 149.512L38.0157 149.528C4.13399 6.51238 38.4796 -161.664 100.143 -291.297C101.135 -293.434 103.302 -294.779 105.655 -294.716C108.008 -294.653 110.096 -293.196 110.966 -291.008C165.324 -157.082 189.921 12.1822 148.177 152.462L148.778 152.478C218.696 63.0495 333.546 -2.17896 439.987 -33.7891Z" fill="#47505D"/>
</g>
</svg>
