<svg width="263" height="113" viewBox="0 0 263 113" fill="none" xmlns="http://www.w3.org/2000/svg">
<path opacity="0.3" d="M262.5 58.4C262.5 66.3389 257.814 73.6996 249.503 80.2997C241.196 86.8973 229.33 92.6803 215.137 97.4573C186.756 107.009 149.187 112.5 112.501 112.5C75.8381 112.5 47.812 104.788 28.9696 93.0496C10.1286 81.312 0.5 65.5751 0.5 49.4857C0.5 41.5793 5.43023 35.1068 14.1485 29.8275C22.8688 24.5469 35.2922 20.5195 50.0556 17.5016C79.5738 11.4675 118.284 9.5 155.002 9.5C191.708 9.5 218.619 13.696 236.336 21.9224C245.188 26.0324 251.724 31.139 256.048 37.2112C260.368 43.2787 262.5 50.3396 262.5 58.4Z" stroke="white"/>
<path opacity="0.3" d="M0.5 63.1471C0.5 45.1945 14.2937 29.5386 37.4226 18.3431C60.5303 7.15796 92.826 0.5 129.5 0.5C166.2 0.5 196.497 4.88004 217.601 13.7839C238.696 22.6843 250.5 36.0481 250.5 54.0074C250.5 71.9389 236.235 86.5609 212.598 96.7248C188.987 106.877 156.185 112.5 119.5 112.5C82.7881 112.5 52.9883 109.156 32.3832 101.287C22.085 97.3539 14.1152 92.302 8.72226 86.002C3.33766 79.7116 0.5 72.1519 0.5 63.1471Z" stroke="white"/>
</svg>
