<svg width="353" height="113" viewBox="0 0 353 113" fill="none" xmlns="http://www.w3.org/2000/svg">
<path opacity="0.3" d="M352.5 58.4C352.5 66.2705 346.253 73.6306 335.047 80.261C323.872 86.8733 307.918 92.6648 288.85 97.4462C250.723 107.007 200.265 112.5 151 112.5C101.749 112.5 64.0775 104.781 38.7387 93.0205C13.375 81.2479 0.5 65.4989 0.5 49.4857C0.5 41.6553 7.07002 35.1693 18.8482 29.8556C30.5872 24.5594 47.2962 20.5261 67.1258 17.506C106.775 11.4675 158.755 9.5 208.045 9.5C257.326 9.5 293.497 13.6964 317.331 21.9414C329.245 26.0631 338.041 31.1846 343.854 37.2667C349.655 43.3369 352.5 50.3788 352.5 58.4Z" stroke="#4E8D37"/>
<path opacity="0.3" d="M0.5 63.1471C0.5 54.217 5.14243 45.8362 13.7473 38.2652C22.3546 30.6921 34.8898 23.9653 50.5652 18.3639C81.9124 7.16229 125.706 0.5 175.418 0.5C225.149 0.5 266.236 4.88105 294.873 13.8006C309.192 18.2606 320.362 23.8446 327.945 30.5527C335.516 37.2502 339.5 45.0569 339.5 54.0074C339.5 62.9266 334.699 71.0444 325.845 78.2272C316.986 85.4129 304.114 91.6233 288.097 96.7076C256.068 106.875 211.592 112.5 161.872 112.5C112.133 112.5 71.7216 109.156 43.7597 101.273C29.7781 97.3307 18.9509 92.2647 11.627 85.9485C4.31891 79.6458 0.5 72.102 0.5 63.1471Z" stroke="#4E8D37"/>
</svg>
