<svg width="1420" height="629" viewBox="0 0 1420 629" fill="none" preserveAspectRatio="none" xmlns="http://www.w3.org/2000/svg">
<path d="M0 81.9617C0 58.3275 18.2694 38.736 41.8535 37.1986C157.513 29.6587 487.802 9.49988 713 9.49988C937.868 9.49988 1263.57 29.5998 1378.2 37.1654C1401.76 38.7208 1420 58.3035 1420 81.9209V584C1420 608.852 1399.85 629 1375 629H45C20.1472 629 0 608.852 0 584V81.9617Z" fill="#63A029"/>
<path opacity="0.4" d="M13 65.7986C13 46.3789 27.7787 30.2908 47.1556 29.0016C153.84 21.9035 487.186 1 712.945 1C938.408 1 1267.13 21.8487 1372.88 28.9736C1392.24 30.2781 1407 46.3588 1407 65.7646V580C1407 600.434 1390.43 617 1370 617H50C29.5654 617 13 600.435 13 580V65.7986Z" stroke="#4F4E4E"/>
</svg>
